<svg width="24" height="24" viewBox="0 0 24 24" fill="none" xmlns="http://www.w3.org/2000/svg">
<path fill-rule="evenodd" clip-rule="evenodd" d="M11.75 2C6.365 2 2 6.365 2 11.75C2 17.135 6.365 21.5 11.75 21.5C17.135 21.5 21.5 17.135 21.5 11.75C21.5 6.365 17.135 2 11.75 2ZM10.03 8.97C9.96134 8.89631 9.87854 8.83721 9.78654 8.79622C9.69454 8.75523 9.59522 8.73318 9.49452 8.73141C9.39382 8.72963 9.29379 8.74816 9.2004 8.78588C9.10701 8.8236 9.02218 8.87974 8.95096 8.95096C8.87974 9.02218 8.8236 9.10701 8.78588 9.2004C8.74816 9.29379 8.72963 9.39382 8.73141 9.49452C8.73318 9.59522 8.75523 9.69454 8.79622 9.78654C8.83721 9.87854 8.89631 9.96134 8.97 10.03L10.69 11.75L8.97 13.47C8.89631 13.5387 8.83721 13.6215 8.79622 13.7135C8.75523 13.8055 8.73318 13.9048 8.73141 14.0055C8.72963 14.1062 8.74816 14.2062 8.78588 14.2996C8.8236 14.393 8.87974 14.4778 8.95096 14.549C9.02218 14.6203 9.10701 14.6764 9.2004 14.7141C9.29379 14.7518 9.39382 14.7704 9.49452 14.7686C9.59522 14.7668 9.69454 14.7448 9.78654 14.7038C9.87854 14.6628 9.96134 14.6037 10.03 14.53L11.75 12.81L13.47 14.53C13.5387 14.6037 13.6215 14.6628 13.7135 14.7038C13.8055 14.7448 13.9048 14.7668 14.0055 14.7686C14.1062 14.7704 14.2062 14.7518 14.2996 14.7141C14.393 14.6764 14.4778 14.6203 14.549 14.549C14.6203 14.4778 14.6764 14.393 14.7141 14.2996C14.7518 14.2062 14.7704 14.1062 14.7686 14.0055C14.7668 13.9048 14.7448 13.8055 14.7038 13.7135C14.6628 13.6215 14.6037 13.5387 14.53 13.47L12.81 11.75L14.53 10.03C14.6037 9.96134 14.6628 9.87854 14.7038 9.78654C14.7448 9.69454 14.7668 9.59522 14.7686 9.49452C14.7704 9.39382 14.7518 9.29379 14.7141 9.2004C14.6764 9.10701 14.6203 9.02218 14.549 8.95096C14.4778 8.87974 14.393 8.8236 14.2996 8.78588C14.2062 8.74816 14.1062 8.72963 14.0055 8.73141C13.9048 8.73318 13.8055 8.75523 13.7135 8.79622C13.6215 8.83721 13.5387 8.89631 13.47 8.97L11.75 10.69L10.03 8.97Z" fill="#DC2626"/>
</svg>
